<?xml version="1.0" encoding="UTF-8" standalone="no"?>
<svg
   xmlns:dc="http://purl.org/dc/elements/1.1/"
   xmlns:cc="http://creativecommons.org/ns#"
   xmlns:rdf="http://www.w3.org/1999/02/22-rdf-syntax-ns#"
   xmlns:svg="http://www.w3.org/2000/svg"
   xmlns="http://www.w3.org/2000/svg"
   xmlns:sodipodi="http://sodipodi.sourceforge.net/DTD/sodipodi-0.dtd"
   xmlns:inkscape="http://www.inkscape.org/namespaces/inkscape"
   inkscape:version="1.1-dev (74036898e9, 2020-05-07)"
   height="281.58994"
   width="277.7713"
   sodipodi:docname="coat_notext.svg"
   version="1.0"
   viewBox="0 0 277.77131 281.58994"
   id="svg2780">
  <defs
     id="defs941" />
  <sodipodi:namedview
     fit-margin-bottom="0"
     fit-margin-right="0"
     fit-margin-left="0"
     fit-margin-top="0"
     inkscape:current-layer="svg2780"
     inkscape:window-maximized="0"
     inkscape:window-y="64"
     inkscape:window-x="1280"
     inkscape:cy="20.17876"
     inkscape:cx="260.94465"
     inkscape:zoom="1.1873966"
     showgrid="false"
     id="namedview939"
     inkscape:window-height="1134"
     inkscape:window-width="956"
     inkscape:pageshadow="2"
     inkscape:pageopacity="0"
     guidetolerance="10"
     gridtolerance="10"
     objecttolerance="10"
     borderopacity="1"
     bordercolor="#666666"
     pagecolor="#ffffff" />
  <g
     transform="translate(-8.2475901,-783.95831)"
     id="layer1">
    <rect
       x="8.2475901"
       y="783.95831"
       width="277.7713"
       height="281.58994"
       style="color:#000000;fill:#b20f18;fill-rule:evenodd;stroke-width:1"
       id="rect3133" />
    <g
       style="stroke-width:0.867348"
       id="use5249"
       transform="matrix(-0.91152247,0.70598761,-0.70601802,-0.91148322,1167.2036,1480.3323)">
      <path
         id="path949"
         style="color:#000000;fill:#ffffff;fill-rule:evenodd;stroke:#000000;stroke-width:0.867348px"
         d="m 406.23,800.15 h 17.45 v 174.68 h -17.45 z" />
      <path
         id="path943"
         style="fill:#ffffff;fill-rule:evenodd;stroke:#000000;stroke-width:0.867349px"
         d="m 414.4376,1054.8133 c 3.56867,-10e-5 9.86971,-3.0673 20.33885,-6.2739 10.3855,-3.2067 38.36367,-13.3841 39.59143,-41.4044 1.22776,-28.00617 -23.82203,-43.99486 -59.92692,-43.99354 -36.36974,10e-4 -61.16978,15.99186 -59.94408,43.99794 1.22571,28.0201 29.20313,38.1956 39.60234,41.4015 10.45496,3.2059 16.76971,6.2725 20.33838,6.2724 z m 0.48945,-42.2394 c 4.20992,0 13.01987,5.5757 8.09859,16.8676 58.21325,17.7022 41.76753,-80.78593 -8.09769,-41.26314 -49.86232,-39.51913 -66.32921,58.97024 -8.11466,41.26384 -4.90649,-11.2916 3.88991,-16.8681 8.11376,-16.8683 z" />
      <rect
         id="rect945"
         style="color:#000000;fill:#ffffff;fill-rule:evenodd;stroke:#000000;stroke-width:0.867349px"
         rx="5.1581192"
         ry="5.1582165"
         height="10.316572"
         width="37.09045"
         y="945.71655"
         x="395.922"
         transform="matrix(1,-3.6683091e-5,-3.66824e-5,1,0,0)" />
      <rect
         id="rect947"
         style="color:#000000;fill:#ffffff;fill-rule:evenodd;stroke:#000000;stroke-width:0.867349px"
         rx="5.1581192"
         ry="5.1582165"
         height="10.316572"
         width="37.09045"
         y="956.03308"
         x="395.922"
         transform="matrix(1,-3.6683091e-5,-3.66824e-5,1,0,0)" />
      <path
         id="path951"
         style="color:#000000;fill:#ffffff;fill-rule:evenodd;stroke:#000000;stroke-width:0.867348px"
         d="m 406.23,873.87 h -8.01 v 12.51 H 366.5 v -10.4 h 16.04 v -7.4 H 366.5 v -11.63 h 23.96 V 827 h -7.92 v 21.5 H 366.5 v -16.92 h 8.99 v -7.4 h -8.99 v -11.1 h 31.72 v 21.85 h 8.01 z" />
    </g>
    <g
       style="stroke-width:0.867348"
       transform="matrix(0.91152247,0.70598761,0.70601802,-0.91148322,-890.93896,1479.1982)"
       id="g5242">
      <path
         sodipodi:nodetypes="csscccc"
         d="m 422.93222,812.15618 c 0,0 1.45689,-2.16256 2.59658,-2.6308 3.87928,-1.59378 8.75181,-1.55627 12.5808,0.15481 1.0228,0.45706 2.27262,2.47599 2.27262,2.47599 l -0.51544,154.55248 h -17.45 z"
         style="color:#000000;fill:#ffffff;fill-rule:evenodd;stroke:#000000;stroke-width:0.867348px"
         id="path4231" />
      <path
         id="path955"
         style="fill:#ffffff;fill-opacity:1;stroke:#000000;stroke-width:0.867346;stroke-linecap:round;stroke-miterlimit:4;stroke-dasharray:none"
         d="m 395.54831,1055.402 c -23.76861,-18.4102 -28.11102,-52.604 -9.69998,-76.37196 18.40957,-23.76779 52.60109,-28.1122 76.36915,-9.70296 23.76927,18.40934 28.11328,52.60132 9.7034,76.37032 -18.40998,23.7701 -52.60377,28.1161 -76.37257,9.7046 z m 8.36425,-10.7989 c 17.80533,13.7922 43.42046,10.5378 57.21125,-7.2686 13.79093,-17.8055 10.53527,-43.41824 -7.27058,-57.20855 -17.80476,-13.79044 -43.41714,-10.53761 -57.20782,7.26695 -13.79175,17.8048 -10.53804,43.4191 7.26715,57.2102 z" />
    </g>
    <path
       style="fill:#ffffff;fill-opacity:1;fill-rule:evenodd;stroke:#000000;stroke-width:0.999995px;stroke-linecap:butt;stroke-linejoin:miter;stroke-opacity:1"
       d="m 240.99971,828.81545 c 19.76243,18.22898 13.10402,38.07588 13.10402,38.07588 0,0 -2.15722,-20.67215 -18.11635,-34.33436 -15.95912,-13.66221 -34.00163,-10.43479 -34.00163,-10.43479 0,0 19.25153,-11.53571 39.01396,6.69327 z"
       id="path24"
       sodipodi:nodetypes="zczcz" />
  </g>
  <metadata
     id="metadata936">
    <rdf:RDF>
      <cc:Work>
        <dc:format>image/svg+xml</dc:format>
        <dc:type
           rdf:resource="http://purl.org/dc/dcmitype/StillImage" />
        <cc:license
           rdf:resource="http://creativecommons.org/publicdomain/zero/1.0/" />
        <dc:publisher>
          <cc:Agent
             rdf:about="http://openclipart.org/">
            <dc:title>Openclipart</dc:title>
          </cc:Agent>
        </dc:publisher>
        <dc:date>2007-12-23T15:46:17</dc:date>
        <dc:description>Coat of arms of Embrach, Zürich, Switzerland</dc:description>
        <dc:source>https://openclipart.org/detail/10276/embrach---coat-of-arms-by-wipp-10276</dc:source>
        <dc:creator>
          <cc:Agent>
            <dc:title>wipp</dc:title>
          </cc:Agent>
        </dc:creator>
        <dc:subject>
          <rdf:Bag>
            <rdf:li>coat of arms</rdf:li>
            <rdf:li>crest</rdf:li>
            <rdf:li>flag</rdf:li>
            <rdf:li>key</rdf:li>
            <rdf:li>swiss</rdf:li>
          </rdf:Bag>
        </dc:subject>
      </cc:Work>
      <cc:License
         rdf:about="http://creativecommons.org/publicdomain/zero/1.0/">
        <cc:permits
           rdf:resource="http://creativecommons.org/ns#Reproduction" />
        <cc:permits
           rdf:resource="http://creativecommons.org/ns#Distribution" />
        <cc:permits
           rdf:resource="http://creativecommons.org/ns#DerivativeWorks" />
      </cc:License>
    </rdf:RDF>
  </metadata>
</svg>
